<?xml version="1.0" standalone="no"?>
<!DOCTYPE svg PUBLIC "-//W3C//DTD SVG 20010904//EN"
 "http://www.w3.org/TR/2001/REC-SVG-20010904/DTD/svg10.dtd">
<svg version="1.0" xmlns="http://www.w3.org/2000/svg"
 width="936.000000pt" height="722.000000pt" viewBox="0 0 936.000000 722.000000"
 preserveAspectRatio="xMidYMid meet">

<g transform="translate(0.000000,722.000000) scale(0.100000,-0.100000)"
fill="#000000" stroke="none">
<path d="M2728 5538 c-3 -414 -3 -759 0 -765 2 -7 15 -13 28 -13 l24 0 0 740
0 740 1474 0 1475 0 5 -42 c3 -24 7 -690 9 -1480 l3 -1438 -749 0 -748 0 3
-27 3 -28 773 -3 772 -4 0 419 c0 230 -3 921 -7 1536 l-6 1117 -1527 0 -1528
0 -4 -752z"/>
<path d="M4060 5587 c0 -10 18 -16 58 -20 80 -9 91 -14 97 -50 3 -18 5 -310 3
-650 -3 -599 -4 -619 -22 -633 -11 -8 -36 -14 -55 -14 -49 0 -81 -10 -81 -25
0 -9 61 -11 263 -10 151 1 261 6 260 11 -1 5 -32 14 -68 20 -36 6 -71 16 -78
23 -18 18 -22 1256 -4 1291 11 21 23 27 81 35 137 20 77 30 -191 33 -218 2
-263 0 -263 -11z"/>
<path d="M2686 4562 c-3 -5 15 -24 41 -43 25 -19 82 -81 126 -138 77 -100 177
-254 177 -274 0 -5 -28 7 -62 25 -35 19 -75 38 -90 42 -18 4 -28 13 -28 25 0
51 -190 207 -302 249 -58 21 -158 37 -158 25 0 -4 29 -24 63 -43 56 -32 273
-227 263 -237 -10 -10 -96 10 -96 22 0 56 -305 187 -402 173 -20 -3 -16 -7 27
-32 47 -28 215 -145 215 -151 0 -1 -30 0 -66 3 -46 3 -73 11 -85 23 -26 26
-78 33 -186 25 -128 -9 -244 -37 -355 -87 -141 -63 -152 -77 -42 -54 38 8 179
19 318 25 195 8 255 14 276 26 21 13 39 15 91 8 l64 -9 -90 -53 c-49 -28 -120
-64 -157 -79 -38 -14 -68 -29 -68 -33 0 -12 100 0 179 21 111 30 217 77 258
115 36 34 37 34 91 24 31 -5 57 -12 59 -14 3 -2 -42 -30 -99 -61 -191 -106
-238 -136 -233 -145 3 -4 38 0 77 11 40 10 100 24 133 29 33 6 97 29 141 50
64 31 84 46 94 70 7 16 18 30 24 30 13 0 105 -43 106 -50 0 -3 -37 -22 -83
-44 -209 -98 -307 -150 -300 -157 4 -4 53 -1 108 7 182 26 321 75 363 129 l20
25 81 -41 c45 -22 81 -44 81 -48 0 -5 -30 -11 -67 -13 -92 -7 -343 -102 -343
-129 0 -8 18 -9 56 -4 30 3 133 10 227 14 149 7 178 10 215 30 l43 22 70 -51
c38 -29 69 -55 69 -59 0 -5 -46 -11 -102 -15 -57 -3 -141 -9 -188 -12 -108 -6
-150 -13 -150 -22 0 -9 103 -34 253 -62 130 -24 253 -26 283 -6 19 14 24 12
61 -27 46 -49 128 -165 202 -289 29 -48 56 -90 62 -93 69 -43 -136 291 -254
413 -44 45 -48 52 -30 52 13 0 27 10 34 22 24 45 -11 208 -71 328 -30 62 -160
231 -171 224 -5 -3 4 -31 20 -62 42 -84 92 -260 101 -360 4 -48 7 -88 6 -89
-1 -1 -31 21 -66 50 -36 29 -78 61 -93 72 -26 19 -27 23 -16 48 10 21 10 38 0
80 -29 131 -136 288 -280 411 -99 84 -133 95 -59 18 88 -91 183 -258 232 -407
14 -43 25 -80 23 -81 -1 -1 -40 20 -87 47 -47 27 -90 49 -97 49 -9 0 -9 8 -2
30 31 88 -161 319 -376 450 -71 44 -71 44 -79 32z"/>
<path d="M4607 2716 c-120 -33 -185 -168 -147 -307 31 -113 153 -180 269 -149
63 17 91 45 91 91 0 35 3 39 25 39 14 0 25 3 25 8 0 4 -38 7 -85 7 -81 0 -116
-10 -57 -17 25 -3 27 -6 26 -46 -1 -57 -21 -75 -79 -75 -58 0 -92 24 -125 89
-20 40 -25 64 -25 129 0 125 39 204 111 224 71 20 133 -19 158 -100 l14 -44 1
62 c1 34 4 70 8 80 6 16 5 16 -10 5 -14 -12 -26 -11 -80 2 -35 9 -65 16 -68
15 -2 0 -25 -6 -52 -13z"/>
<path d="M2690 2711 l25 -7 0 -214 0 -214 -25 -7 c-14 -4 14 -7 65 -7 51 0 79
3 65 7 l-25 7 0 214 0 214 25 7 c14 4 -14 7 -65 7 -51 0 -79 -3 -65 -7z"/>
<path d="M2977 2709 c21 -6 35 -17 38 -32 3 -12 4 -107 3 -212 l-3 -190 -30
-6 c-19 -4 -2 -7 45 -7 47 0 64 3 45 7 l-30 6 -3 190 -2 190 132 -197 c73
-109 136 -198 140 -198 4 0 8 101 8 224 l0 225 28 4 c15 2 -4 4 -43 4 -38 0
-57 -2 -42 -4 16 -3 30 -10 33 -17 2 -6 3 -79 2 -160 l-3 -149 -113 166 -113
167 -62 -1 c-56 -1 -59 -2 -30 -10z"/>
<path d="M3490 2706 c0 -7 -3 -34 -6 -60 -5 -31 -3 -46 5 -46 6 0 11 11 11 24
0 39 39 75 85 78 l40 3 0 -215 0 -215 -30 -6 c-16 -4 13 -7 65 -6 52 0 85 2
72 4 -38 8 -43 32 -40 240 l3 198 42 -1 c51 -1 80 -24 89 -70 3 -19 11 -34 16
-34 6 0 8 10 4 23 -3 12 -6 39 -6 60 l0 37 -175 0 c-141 0 -175 -3 -175 -14z"/>
<path d="M3980 2711 l25 -7 0 -214 0 -214 -25 -7 c-14 -4 55 -7 153 -8 l177
-1 -1 63 -1 62 -12 -37 c-18 -60 -33 -68 -129 -75 l-87 -6 0 117 0 116 36 0
c51 0 72 -15 86 -63 l13 -42 3 52 c2 29 2 77 0 105 l-3 53 -13 -41 c-13 -44
-29 -54 -89 -54 l-33 0 0 101 0 101 78 -7 c64 -6 81 -11 100 -31 12 -14 22
-34 22 -44 0 -10 5 -22 12 -26 8 -5 9 6 5 41 -4 26 -7 54 -7 61 0 11 -32 14
-167 13 -93 -1 -157 -4 -143 -8z"/>
<path d="M4980 2711 l25 -7 0 -214 0 -214 -25 -7 c-14 -4 14 -7 65 -7 51 0 79
3 65 7 -25 7 -25 9 -28 120 -3 109 -2 112 18 107 11 -3 29 -8 39 -11 23 -7 38
-42 46 -113 11 -82 68 -135 126 -117 23 8 26 35 3 35 -8 0 -12 -4 -9 -10 9
-15 -21 -12 -33 3 -5 6 -13 37 -16 68 -9 73 -36 116 -89 138 l-42 18 37 7 c79
15 125 85 94 144 -24 46 -78 62 -199 61 -57 -1 -91 -4 -77 -8z m191 -27 c23
-21 30 -64 18 -109 -8 -28 -18 -40 -44 -51 -63 -26 -65 -24 -65 79 0 52 3 97
7 101 11 11 64 -2 84 -20z"/>
<path d="M5612 2699 c-5 -13 -40 -109 -76 -214 -37 -104 -72 -195 -78 -202 -5
-6 -19 -14 -31 -16 -12 -2 12 -4 53 -4 41 0 62 2 47 4 -39 6 -41 21 -17 87
l22 57 71 -3 70 -3 20 -58 c10 -32 17 -61 14 -64 -3 -3 -21 -9 -39 -13 -22 -5
4 -8 77 -7 61 0 98 2 83 4 -14 2 -31 10 -36 16 -5 7 -44 106 -86 222 -43 115
-79 211 -81 214 -3 2 -8 -7 -13 -20z m26 -189 l31 -90 -65 0 c-35 0 -64 3 -64
8 -1 15 55 172 61 172 4 0 21 -40 37 -90z"/>
</g>
</svg>
